<svg width="133" height="50" viewBox="0 0 133 50" fill="none" xmlns="http://www.w3.org/2000/svg">
<path d="M21.1957 38.75V20.0543C21.1957 13.4783 16.1957 11.1957 10.6522 11.1957C7.55435 11.1957 4.29348 11.9022 1.57609 12.9348L2.22826 18.2065C3.75 17.5 7.44565 16.3587 10.5978 16.3587C13.4239 16.3587 15.7609 17.2826 15.7609 20.3261V21.7391L9.72826 22.0652C3.80435 22.3913 0 25.0543 0 31.0326C0 36.5761 3.69565 39.1304 8.04348 39.1304C10.5978 39.1304 13.3696 38.2065 15.7609 36.4674L16.1413 38.75H21.1957ZM9.83696 27.0652L15.7609 26.7391V31.5761C13.913 32.7174 11.413 33.9674 8.53261 33.9674C6.68478 33.9674 5.43478 32.7717 5.43478 31.0326C5.43478 28.9674 6.63043 27.2283 9.83696 27.0652Z" fill="#0F2D5A"/>
<path d="M32.8745 38.75V16.5761C32.8745 13.0435 31.5701 11.5761 27.7658 11.5761H24.8854V16.7391H26.6245C27.2223 16.7391 27.4397 16.9565 27.4397 17.5543V38.75H32.8745ZM25.3745 3.8587C25.3745 5.97826 27.1136 7.71739 29.2332 7.71739C31.3527 7.71739 33.0919 5.97826 33.0919 3.8587C33.0919 1.73913 31.3527 0 29.2332 0C27.1136 0 25.3745 1.73913 25.3745 3.8587Z" fill="#0F2D5A"/>
<path d="M52.5335 11.8478C51.3379 11.3587 50.3053 11.1957 49.327 11.1957C46.5009 11.1957 44.8162 12.7717 43.4575 14.5109L43.077 11.5761H38.0227V38.75H43.4575V20.5435C44.8705 18.2065 46.9357 16.3587 49.7618 16.3587C50.577 16.3587 51.4466 16.5761 52.3162 16.9565L52.5335 11.8478Z" fill="#0F2D5A"/>
<path d="M75.9681 38.75V20.0543C75.9681 13.4783 70.9681 11.1957 65.4246 11.1957C62.3268 11.1957 59.0659 11.9022 56.3485 12.9348L57.0007 18.2065C58.5224 17.5 62.2181 16.3587 65.3702 16.3587C68.1963 16.3587 70.5333 17.2826 70.5333 20.3261V21.7391L64.5007 22.0652C58.5768 22.3913 54.7724 25.0543 54.7724 31.0326C54.7724 36.5761 58.4681 39.1304 62.8159 39.1304C65.3702 39.1304 68.142 38.2065 70.5333 36.4674L70.9137 38.75H75.9681ZM64.6094 27.0652L70.5333 26.7391V31.5761C68.6855 32.7174 66.1855 33.9674 63.305 33.9674C61.4572 33.9674 60.2072 32.7717 60.2072 31.0326C60.2072 28.9674 61.4029 27.2283 64.6094 27.0652Z" fill="#0F2D5A"/>
<path d="M86.2882 36.0326C88.2991 38.0978 90.3643 39.1304 92.9186 39.1304C99.3317 39.1304 103.408 34.6196 103.408 26.5217V23.5326C103.408 16.4674 99.0056 11.1957 92.6469 11.1957C90.473 11.1957 88.2991 11.9565 86.2882 13.587L85.9078 11.5761H80.8534V49.6196H86.2882V36.0326ZM86.2882 19.1304C88.136 17.2826 90.31 16.3587 92.3208 16.3587C95.636 16.3587 97.973 18.913 97.973 23.587V26.413C97.973 31.5217 96.0165 33.9674 92.3752 33.9674C90.31 33.9674 88.4621 33.0978 86.2882 31.3043V19.1304Z" fill="#0F2D5A"/>
<path d="M114.774 42.337C114.068 44.1848 112.709 44.837 111.242 44.837C109.774 44.837 108.089 44.1304 106.785 43.2609L106.242 48.8043C107.981 49.5652 109.774 50 111.459 50C115.481 50 118.035 48.2609 119.611 44.1848L132.437 11.5761H126.568L118.687 32.0109L111.405 11.5761H105.481L116.078 38.913L114.774 42.337Z" fill="#0F2D5A"/>
</svg>
